<?xml version="1.0" encoding="utf-8"?>
<!-- Generator: Adobe Illustrator 25.4.1, SVG Export Plug-In . SVG Version: 6.00 Build 0)  -->
<svg version="1.1" id="Layer_1" xmlns="http://www.w3.org/2000/svg" xmlns:xlink="http://www.w3.org/1999/xlink" x="0px" y="0px" viewBox="0 0 3000 483" style="enable-background:new 0 0 3000 483.4;" xml:space="preserve" width="300px" height="48px" preserveAspectRatio="none">
<style type="text/css">
	.st0{fill:#FFFFFF;}
</style>
<g transform="scale(9.284485025522587) translate(10, 10)">
	<g id="SvgjsG8045" transform="matrix(0.9121485838470709,0,0,0.9121485838470709,-18.166610757954846,-19.57470777426117)">
		<g>
			<path class="st0" d="M65.8,14.9l-25.3-4.4c-0.2,0-0.5-0.1-0.7-0.1c-0.2,0-0.4,0-0.5,0l-26.9,3.7c-2,0.3-3.5,2.1-3.4,4.1l1.3,34.3
				c0.1,1.5,0.9,2.8,2.3,3.5l23.3,11c0.5,0.3,1.1,0.4,1.7,0.4c0.5,0,1-0.1,1.4-0.3l26-10c1.5-0.6,2.5-2,2.6-3.5l1.6-34.7
				C69.2,17.1,67.8,15.3,65.8,14.9z M37.6,23l-7-1.6l24.8-4.1l6.8,1.2L37.6,23z M39.8,14.5l8,1.4l-24.5,3.7l-7.6-1.8L39.8,14.5z
				 M14.2,52.6L13,19.3l7.7,1.8L21,34l0.8-0.6l0.9,1.2l0.9-0.6l0.9,1.2l0.9-0.6l0.9,1.2l0.9-0.6l1,1.3l-0.2-13.6l8.5,2l-0.1,38.3
				L14.2,52.6z M63.5,53.6l-25,9.6l0.1-38.4l26.5-4.9L63.5,53.6z"/>
		</g>
	</g>
	<g id="SvgjsG8046" transform="matrix(0.769738370551561,0,0,0.769738370551561,73.46052417649652,4.038927247684331)">
		<path class="st0" d="M5.3,29.8c-0.2,0-0.4-0.1-0.4-0.3L3.7,27c-0.6,0.1-1.2,0.1-1.8,0.1c-2.4,0-4.6-0.6-6.5-1.7
			c-2-1.1-3.5-2.7-4.6-4.6s-1.7-4.2-1.7-6.6s0.6-4.6,1.7-6.6S-6.6,4.2-4.7,3c2-1.1,4.2-1.7,6.6-1.7S6.5,1.9,8.4,3
			c1.9,1.1,3.5,2.6,4.6,4.6s1.7,4.2,1.7,6.6c0,2.4-0.6,4.6-1.7,6.6c-0.9,1.6-2.1,2.8-3.5,3.9l2,4.3c0.1,0.1,0.2,0.2,0.2,0.3
			c0,0.3-0.2,0.5-0.5,0.5H5.3L5.3,29.8z M1,21.3l-1.6-3.4c-0.1-0.1-0.1-0.2-0.1-0.3c0-0.3,0.2-0.5,0.5-0.5h5.9
			c0.2,0,0.4,0.1,0.5,0.3l0.7,1.5c0.2-0.3,0.4-0.7,0.6-1c0.6-1.1,0.9-2.3,0.9-3.6s-0.3-2.5-0.9-3.6C7,9.5,6.2,8.6,5.2,8
			c-1-0.6-2-0.9-3.2-0.9S-0.3,7.4-1.3,8c-1,0.6-1.8,1.5-2.4,2.6c-0.6,1.1-0.9,2.3-0.9,3.6s0.3,2.5,0.9,3.6c0.6,1.1,1.4,2,2.4,2.6
			C-0.6,20.8,0.2,21.2,1,21.3L1,21.3z M29.2,27c-2.2,0-3.7-0.4-5.4-1.3c-1.6-0.9-2.9-2.1-3.8-3.8c-0.9-1.6-1.3-3.5-1.3-5.7V2.1
			c0-0.3,0.2-0.5,0.5-0.5h5.2c0.3,0,0.5,0.2,0.5,0.5v14.1c0,1.6,0.4,2.8,1.3,3.7c0.8,0.9,1.6,1.3,3,1.3c1.4,0,2.1-0.4,2.9-1.3
			c0.8-0.9,1.2-2.2,1.2-3.8V2.1c0-0.3,0.2-0.5,0.5-0.5h5.2c0.3,0,0.5,0.2,0.5,0.5v14.1c0,2.2-0.4,4.1-1.3,5.7
			c-0.8,1.6-2.1,2.9-3.7,3.8C33,26.6,31.4,27,29.2,27L29.2,27z M44.1,27c-0.3,0-0.5-0.2-0.5-0.5v-24c0-0.3,0.2-0.5,0.5-0.5h5.2
			c0.3,0,0.5,0.2,0.5,0.5v24c0,0.3-0.2,0.5-0.5,0.5H44.1z M66.4,27c-2.4,0-4.5-0.6-6.4-1.7c-1.9-1.2-3.4-2.7-4.5-4.7
			c-1.1-2-1.6-4.2-1.6-6.6c0-2.4,0.6-4.6,1.7-6.5c1.1-1.9,2.7-3.5,4.6-4.6c2-1.1,4.2-1.7,6.5-1.7c1.8,0,3.5,0.4,5.2,1.1
			c1.7,0.8,3.1,1.8,4.3,3c0.2,0.2,0.2,0.5,0,0.7l-3.8,3.1c-0.1,0.1-0.2,0.2-0.4,0.2s-0.3-0.1-0.4-0.2c-2-2.5-5.3-3-8.1-1.3
			c-2.4,1.5-3.3,4.2-3.2,6.9c0.1,2.8,2.1,5.1,4.8,5.9c2.4,0.7,4.8,0.2,6.5-1.7c0.1-0.1,0.2-0.2,0.4-0.1c0.2,0,0.3,0,0.4,0.2l3.9,2.7
			c0.2,0.2,0.2,0.5,0,0.7c-1.3,1.4-2.8,2.5-4.5,3.3C69.9,26.6,68.2,27,66.4,27L66.4,27z M80.8,27c-0.3,0-0.5-0.2-0.5-0.5v-24
			c0-0.3,0.2-0.5,0.5-0.5H86c0.3,0,0.5,0.2,0.5,0.5v7.1l7.2-7.4C93.8,2.1,94,2,94.1,2h6c0.2,0,0.4,0.1,0.5,0.3
			c0.1,0.2,0,0.4-0.1,0.6l-8.1,8.6l9,14.7c0.1,0.1,0.1,0.2,0.1,0.3c0,0.3-0.2,0.5-0.5,0.5h-6.2c-0.2,0-0.3-0.1-0.4-0.2l-6.6-11.2
			l-1.4,1.2v9.7c0,0.3-0.2,0.5-0.5,0.5H80.8L80.8,27z"/>
	</g>
	<g id="SvgjsG8047" transform="matrix(0.7697384684288687,0,0,0.7697384684288687,163.46052287962232,4.038924385752063)">
		<path class="st0" d="M-0.3,27.2c-1.9,0-3.8-0.4-5.7-1.1c-1.8-0.7-3.5-1.7-4.8-2.9c-0.2-0.2-0.2-0.4-0.1-0.6l1.4-4.8
			c0.1-0.2,0.2-0.3,0.4-0.3c0.2,0,0.3,0,0.4,0.1c2.1,2,4.5,3.8,7.5,4c0.8,0,1.7,0.1,2.4-0.2c2.4-0.8,1.4-3.2-0.4-3.9
			c-0.6-0.2-1.4-0.5-2.5-0.8c-1.6-0.4-2.9-0.9-3.9-1.4c-1.1-0.5-2-1.2-2.8-2.2c-0.8-1-1.2-2.4-1.2-4c0-1.6,0.4-2.9,1.2-4.1
			S-6.5,3-5.1,2.4s3-0.9,4.9-0.9c1.6,0,3.2,0.2,4.8,0.8c1.6,0.5,3,1.2,4.2,2C9,4.4,9.1,4.6,9,4.8L7.7,9.3c0,0.2-0.2,0.2-0.3,0.3
			c-0.1,0-0.3,0-0.4,0C5.2,8.4,3.4,7.1,1.2,6.8c-1.4-0.2-3.5-0.1-4,1.6c-0.6,2.2,2.6,2.7,4,3.2c1.6,0.5,2.9,1,4,1.4
			c1.1,0.5,2,1.3,2.8,2.3c0.8,1,1.2,2.4,1.2,4.1c0,1.6-0.4,3-1.3,4.2c-0.8,1.2-2,2.1-3.4,2.7C3.1,26.9,1.5,27.2-0.3,27.2z M13.7,27
			c-0.3,0-0.5-0.2-0.5-0.5v-24c0-0.3,0.2-0.5,0.5-0.5h5.2c0.3,0,0.5,0.2,0.5,0.5v9.8h9V2.5C28.5,2.2,28.7,2,29,2h5.2
			c0.3,0,0.5,0.2,0.5,0.5v24c0,0.3-0.2,0.5-0.5,0.5H29c-0.3,0-0.5-0.2-0.5-0.5v-8.6h-9v8.6c0,0.3-0.2,0.5-0.5,0.5H13.7L13.7,27z
			 M39.2,27c-0.3,0-0.5-0.2-0.5-0.5v-24C38.7,2.2,39,2,39.2,2h5.2C44.7,2,45,2.2,45,2.5v24c0,0.3-0.2,0.5-0.5,0.5H39.2z M49.4,27
			c-0.3,0-0.5-0.2-0.5-0.5v-24C49,2.2,49.2,2,49.4,2h9.8c3,0,5.4,0.8,7.1,2.3c2.5,2.2,3.3,6.5,2.1,9.6c-0.4,1.1-1.2,2.2-2.2,2.9
			c-3.2,2.5-7.3,2.3-11.2,2.3v7.4c0,0.3-0.2,0.5-0.5,0.5H49.4L49.4,27z M55.2,13.6c0,0,5,0.6,6.8-0.6c0.7-0.4,1.1-1.5,1.1-2.3
			c0-0.9-0.5-1.8-1.2-2.4c-0.8-0.6-2.6-0.8-3.6-0.8l-3.1,0.1L55.2,13.6L55.2,13.6z M79.6,27c-0.3,0-0.5-0.2-0.5-0.5V7.6h-5.5
			c-0.3,0-0.5-0.2-0.5-0.5V2.5c0-0.3,0.2-0.5,0.5-0.5h17.2c0.3,0,0.5,0.2,0.5,0.5v4.6c0,0.3-0.2,0.5-0.5,0.5h-5.5v18.9
			c0,0.3-0.2,0.5-0.5,0.5H79.6z M106.6,27c-2.4,0-4.6-0.6-6.5-1.7c-2-1.1-3.5-2.7-4.7-4.6c-1.1-2-1.7-4.2-1.7-6.6
			c0-2.4,0.6-4.6,1.7-6.5c1.2-2,2.7-3.5,4.6-4.6c2-1.1,4.2-1.7,6.6-1.7c2.4,0,4.6,0.6,6.5,1.7c2,1.1,3.5,2.7,4.6,4.6
			c1.2,2,1.7,4.2,1.7,6.5c0,2.4-0.6,4.6-1.7,6.6c-1.1,2-2.7,3.5-4.6,4.7C111.1,26.4,108.9,27,106.6,27L106.6,27z M106.6,21.2
			c1.2,0,2.2-0.3,3.2-0.9c1-0.6,1.8-1.5,2.4-2.6c0.6-1.1,0.9-2.3,0.9-3.6c0-1.3-0.3-2.5-0.9-3.6c-0.6-1.1-1.4-1.9-2.4-2.6
			c-1-0.6-2-0.9-3.2-0.9c-1.2,0-2.3,0.3-3.3,0.9c-1,0.6-1.8,1.5-2.4,2.6c-0.6,1.1-0.9,2.3-0.9,3.6c0,1.3,0.3,2.6,0.9,3.6
			c0.6,1.1,1.4,2,2.4,2.6C104.4,20.9,105.4,21.2,106.6,21.2z M124,27c-0.3,0-0.5-0.2-0.5-0.5v-24c0-0.3,0.2-0.5,0.5-0.5h9.1
			c2.4,0,4.6,0.5,6.5,1.6c1.9,1,3.4,2.5,4.5,4.4c1,1.9,1.6,4,1.6,6.4c0,2.4-0.6,4.6-1.6,6.5c-1.1,1.9-2.6,3.4-4.6,4.4
			c-1.9,1.1-4.2,1.6-6.6,1.6H124z M129.6,21.4h3.5c1.2,0,2.2-0.3,3.2-0.8c0.9-0.6,1.7-1.4,2.2-2.4s0.8-2.2,0.8-3.6
			c0-1.3-0.3-2.6-0.8-3.6c-0.6-1.1-1.3-1.9-2.3-2.5c-1-0.6-2.1-0.9-3.3-0.9h-3.3L129.6,21.4L129.6,21.4z M147.4,27
			c-0.2,0-0.3-0.1-0.4-0.2c-0.1-0.1-0.1-0.3-0.1-0.5l9.3-24c0.1-0.2,0.3-0.3,0.5-0.3h5.4c0.2,0,0.4,0.1,0.5,0.3l9.2,24
			c0,0.2,0,0.3-0.1,0.5c-0.1,0.2-0.2,0.2-0.4,0.2h-5.6c-0.2,0-0.4-0.1-0.5-0.3l-1.5-3.7l-9,0l-1.5,3.6c-0.1,0.2-0.3,0.3-0.5,0.3
			H147.4L147.4,27z M156.3,18h5.8l-2.9-8.5L156.3,18z M180.3,27c-0.3,0-0.5-0.2-0.5-0.5V17l-8.5-14.2c-0.1-0.2-0.1-0.4,0-0.5
			c0.1-0.2,0.2-0.2,0.4-0.2h5.2c0.2,0,0.4,0.1,0.4,0.3l5.4,8.9l5.3-8.9c0.1-0.2,0.2-0.3,0.4-0.3h5.2c0.2,0,0.4,0.1,0.4,0.2
			s0.1,0.4,0,0.5l-8.3,14v9.7c0,0.3-0.2,0.5-0.5,0.5H180.3L180.3,27z"/>
	</g>
</g>
</svg>
